<?xml version="1.0" standalone="no"?>
<!DOCTYPE svg PUBLIC "-//W3C//DTD SVG 20010904//EN"
 "http://www.w3.org/TR/2001/REC-SVG-20010904/DTD/svg10.dtd">
<svg version="1.0" xmlns="http://www.w3.org/2000/svg"
 width="225.000000pt" height="225.000000pt" viewBox="0 0 225.000000 225.000000"
 preserveAspectRatio="xMidYMid meet">
<metadata>
Created by potrace 1.16, written by Peter Selinger 2001-2019
</metadata>
<g transform="translate(0.000000,225.000000) scale(0.100000,-0.100000)"
fill="#fff" stroke="none">
<path d="M970 2115 c-405 -81 -725 -393 -820 -799 -30 -128 -28 -328 4 -457
50 -202 133 -347 280 -495 141 -140 287 -225 473 -276 99 -26 326 -36 428 -18
216 38 403 137 561 294 95 95 150 175 210 300 73 154 89 233 89 431 0 147 -3
182 -23 255 -108 395 -437 699 -836 769 -80 15 -286 12 -366 -4z m424 -155
c348 -92 602 -379 655 -737 27 -177 -6 -377 -86 -537 -29 -58 -113 -180 -119
-173 -3 2 -14 37 -25 78 -51 184 -182 347 -345 429 -27 14 -51 26 -53 27 -2 1
13 21 33 45 20 23 49 67 63 98 24 48 27 68 28 150 0 87 -3 101 -32 160 -147
299 -543 302 -696 5 -29 -55 -31 -68 -32 -160 0 -88 3 -107 26 -156 15 -31 43
-75 63 -97 l37 -40 -59 -32 c-170 -91 -301 -258 -348 -445 l-17 -68 -34 39
c-47 56 -130 225 -155 319 -32 116 -31 345 0 460 47 169 128 303 260 426 125
118 298 202 464 228 95 15 280 5 372 -19z m-107 -410 c144 -83 161 -278 34
-393 -48 -43 -107 -61 -182 -54 -65 6 -103 23 -148 69 -112 112 -80 317 61
387 32 15 62 21 113 21 59 0 78 -5 122 -30z m18 -615 c129 -34 267 -139 327
-250 36 -68 68 -187 68 -256 0 -57 0 -57 -47 -87 -297 -190 -692 -188 -985 6
-37 24 -38 27 -38 81 0 31 7 85 15 120 43 180 194 337 374 386 65 18 215 18
286 0z"/>
</g>
</svg>
